<?xml version="1.0"?>
<svg width="200" height="100" xmlns="http://www.w3.org/2000/svg" xmlns:svg="http://www.w3.org/2000/svg" preserveAspectRatio="xMidYMid meet" version="1.0">
 <g class="layer">
  <title>Layer 1</title>
  <text fill="#3f3244" font-family="Serif" font-size="24" id="svg_49" stroke-width="0" text-anchor="middle" transform="matrix(1.03061 0 0 2.08024 -131.823 -381.417)" x="265.39" xml:space="preserve" y="212.54">Axolotech</text>
  <g id="svg_50" transform="rotate(-18.5921 41.4854 47.853)">
   <path d="m78.07,19.25c-0.88,-0.1 -1.91,-0.1 -2.3,0.02c-0.36,0.11 -1.35,0.3 -2.14,0.42c-0.89,0.09 -1.75,0.46 -2.14,0.88c-0.38,0.4 -0.76,0.66 -0.86,0.6c-0.19,-0.11 -1.63,1.89 -1.92,2.67c-0.25,0.67 0.55,0.83 1.1,0.21c0.29,-0.32 0.69,-0.7 0.89,-0.85c0.2,-0.14 0.64,-0.57 0.97,-0.9c0.62,-0.58 2.1,-1.24 1.95,-0.83c-0.03,0.08 -0.5,0.49 -1.02,0.87c-0.54,0.37 -1.37,1.21 -1.89,1.83c-0.65,0.83 -1.05,1.11 -1.45,0.97c-0.28,-0.1 -2.35,-0.84 -4.58,-1.63c-5.97,-2.12 -7.66,-2.51 -10.46,-2.4c-2.72,0.13 -3.23,-0.02 -3.2,-0.86c0.02,-0.82 1.75,-4.26 2.29,-4.56c0.61,-0.39 0.79,0.12 0.23,0.6c-0.62,0.51 -1.56,2.85 -1.49,3.66c0.08,0.71 0.08,0.71 0.79,0.35c0.39,-0.19 0.8,-0.6 0.92,-0.93c0.11,-0.3 0.55,-1.32 0.96,-2.26c0.41,-0.94 0.72,-1.84 0.71,-2.05c-0.04,-0.19 0.02,-0.58 0.13,-0.88c0.1,-0.27 1.33,-2.75 1.18,-3.04c-0.22,-0.4 -2.39,0.33 -3.1,0.47c-0.52,0.08 -2.87,3.61 -1.15,0.25c-0.37,-0.23 -0.7,0.25 -0.95,0.53c-0.25,0.28 -1.22,0.73 -0.83,0.79c-0.3,-0.12 -0.56,0.49 -0.5,0.65c0.08,0.18 0.23,0.31 0.01,0.44c-0.46,0.22 -0.46,0.68 -1.85,3.77c-1.33,2.93 -1.31,6.91 -0.58,4.97c0.5,-1.78 2.36,-0.94 3.48,-0.93c1.11,0.02 2.69,0.25 4.1,0.24c2.91,0.05 5.43,0.66 8.91,2.25c2.1,0.98 2.67,1.36 4.86,3.32c1.36,1.19 2.71,2.25 3.02,2.34c0.76,0.2 2.58,-0.91 2.63,-1.64c0.03,-0.31 0.16,-0.5 0.28,-0.43c0.4,0.24 1.25,-1.88 0.98,-2.38c-0.26,-0.39 -0.19,-0.48 0.32,-0.7c0.32,-0.17 0.65,-0.43 0.72,-0.62c0.07,-0.19 0.45,-0.52 0.85,-0.74c0.4,-0.22 0.8,-0.6 0.89,-0.85c0.1,-0.27 0.34,-0.52 0.57,-0.61c0.27,-0.1 0.34,-0.29 0.24,-0.71c-0.1,-0.42 -0.01,-0.67 0.3,-0.94c0.89,-0.75 0.37,-1.13 -1.87,-1.37zm0.02,1.77c-0.07,0.19 -1.22,0.12 -2.39,-0.13c-0.14,-0.02 0.15,-0.17 0.64,-0.34c0.88,-0.29 1.92,0.01 1.75,0.47zm-2.89,2.81c-1.27,1.24 -2.26,2.96 -2.14,3.63c0.13,0.57 -0.32,2.29 -0.55,2.15c-0.72,-0.44 0.61,-4.66 1.89,-6.03c0.77,-0.82 1.82,-1.41 1.94,-1.1c0.02,0.11 -0.5,0.72 -1.14,1.36zm-20.61,-10.75c0.02,0.18 -0.92,1.74 -1.06,1.66c-0.12,-0.07 -0.45,-0.18 -0.72,-0.21c-0.43,-0.07 -0.42,-0.09 0.01,-0.33c0.09,-0.95 1.72,-1.65 1.78,-1.12zm-5.11,6.55c-1.82,0.54 1.36,-3.68 1.62,-4.08c0.23,-0.29 0.37,-0.37 0.36,-0.11c-0.02,0.22 -1.82,4.13 -1.98,4.2z" fill="#3f3244" id="svg_3"/>
   <path d="m84.62,28.06c-0.44,0.1 -1.43,0.15 -2.22,0.1c-0.76,-0.03 -2.07,0.16 -2.9,0.45c-1.53,0.56 -9.62,2.31 -4.24,2.05c0.14,0.09 1.51,0.26 1.74,0.03c0.55,-0.46 4.6,-1.3 4.47,-0.95c-0.28,0.75 -3,2.5 -3.74,2.05c-0.63,-0.38 -4.66,-1.49 -4.34,0.25c1.21,3.61 0.78,5.82 -1.05,7.78c-1.78,1.9 -3.63,3.18 -6.14,4.27c-2.7,1.17 -5.37,1.53 -8.5,1.18c-2.03,-0.24 -2.13,-0.21 -1.14,0.2c3.15,1.32 5.54,1.52 8.94,0.78c2.1,-0.47 3.44,-1.15 7.75,-3.82c3.56,-2.23 4.01,-2.42 6.38,-2.63c1.78,-0.17 4.03,-1.48 4.71,-1.83c0.41,-1.08 -1.49,-1.37 -4.74,-0.74c-2.32,0.44 -2.33,0.01 -0.03,-0.52c2.26,-0.51 3.95,-0.44 5.05,0.23c0.79,0.48 0.82,0.57 0.44,1.13c-1.01,0.41 -2.38,1.36 -3.05,2.01c-0.51,0.05 -0.84,0.25 -0.91,0.44c-0.07,0.19 -0.65,0.36 -1.3,0.4c-1.19,0.04 -1.63,0.36 -1,0.75c0.19,0.11 0.31,0.32 0.25,0.48c-0.05,0.13 -0.31,0.14 -0.54,0c-0.26,-0.16 -0.68,-0.18 -0.97,-0.09c-0.27,0.1 -0.8,0.14 -1.19,0.1c-0.49,-0.07 -0.78,0.09 -0.95,0.55c-0.37,1 -2.96,2.3 -3.79,1.93c-0.61,-0.27 -0.73,-0.18 -1.16,0.72c-0.55,1.22 -1.19,4.54 -0.78,4.06c0.15,-0.17 0.47,-1.8 0.77,-2.28c0.39,-0.72 0.91,-0.51 1.35,-0.4c0.33,0.1 1.04,-0.26 1.58,-0.46c0.61,-0.26 1.07,-0.24 1.31,0.03c0.29,0.31 0.42,0.26 0.62,-0.28c0.21,-0.57 0.38,-0.63 0.85,-0.34c0.65,0.4 0.98,-0.1 0.64,-0.93c2.9,2.13 0.26,-0.24 1.09,-0.16c1.1,0.9 2.59,0.75 1.22,0.28c-1.87,-1.73 0.28,-0.66 0.78,-0.62c0.36,0.02 0.71,-0.06 0.76,-0.2c0.05,-0.13 0.68,-0.21 1.4,-0.14c1.31,0.1 1.31,0.1 0.85,-0.51c-0.27,-0.36 -0.49,-0.69 -0.52,-0.75c-0.1,-0.19 1.85,-1.49 2.56,-1.69c0.37,-0.14 0.79,-0.51 0.93,-0.86c0.13,-0.35 0.54,-0.9 0.88,-1.19c0.35,-0.32 0.57,-0.68 0.54,-0.83c-0.04,-0.12 0.2,-0.38 0.54,-0.53c0.58,-0.24 0.6,-0.3 0.26,-0.7c-0.33,-0.43 -3.43,-1.69 -4.58,-1.86c-0.97,-0.16 -0.88,-0.47 0.36,-1.27c1.69,-1.06 3.04,-1.89 3.14,-2.59c0.04,-0.34 0.38,-0.86 0.6,-1.06c0.55,-0.46 0.86,-0.74 -0.34,-1.74c-0.81,-0.66 -1.97,-0.45 -2.6,-0.28zm0.9,1.87c0.04,0.42 -2.92,2.49 -4.55,3.18c-0.55,0.23 -1.17,0.68 -1.36,0.96c-0.34,0.52 -3.67,0.65 -3.51,0.22c0.27,-0.73 4.26,-1.78 6.16,-2.64c2.51,-1.12 2.87,-1.53 1.72,-1.9c-0.88,-0.34 -0.65,-0.72 0.34,-0.59c0.8,0.09 1.15,0.3 1.2,0.77zm-6.72,6.2c-0.21,0.1 -0.87,0.56 -1.46,0.99c-1.26,0.92 -1.59,0.49 -0.61,-0.9c0.65,-0.96 0.9,-1.01 2.09,-0.45c0.22,0.1 0.23,0.24 -0.02,0.35z" fill="#3f3244" id="svg_4"/>
   <path d="m66.19,28.26c-0.68,0.35 -0.2,1.09 0.07,1.86c1.52,1.35 2.37,0.12 1.67,-1.3c-0.45,-0.94 -1.17,-0.84 -1.74,-0.56z" fill="#3f3244" id="svg_5"/>
   <path d="m49.85,24.26c-0.32,0.01 -0.64,0.34 -0.82,0.79c-0.31,0.83 -0.04,1.69 0.66,1.42c0.13,0.33 -0.34,0.67 -0.15,0.16c-0.17,0.46 1.02,0.45 1.34,0.05c0.35,-0.39 0.17,-2.05 -0.25,-2.3c-0.14,-0.09 -0.52,-0.15 -0.79,-0.12z" fill="#3f3244" id="svg_6"/>
   <path d="m60.95,32.28c-5.9,-3.26 -6.96,-2.45 -10.78,-1.7c-2.37,0.44 -3.8,0.43 -4.62,-0.07c-0.26,-0.16 -0.52,-0.15 -0.58,0.01c-0.23,0.62 2.25,1.41 4.59,1.44c10.25,0.99 8.93,3.36 16.66,4.89c1.82,0.95 3.48,1.66 3.68,1.58c0.4,-0.15 0.45,-0.12 -1.32,-1.3c-0.69,-0.45 -2.28,-1.56 -3.53,-2.44c-1.25,-0.86 -3.11,-1.96 -4.11,-2.41z" fill="#3f3244" id="svg_7"/>
   <path d="m42.02,18.31c-0.28,0.06 -1.68,-3.23 -1.98,-3.51c-0.41,-0.35 0.41,5.55 0.45,5.84c0.03,0.22 0.22,0.5 0.4,0.61c0.28,0.17 -4.01,-9.74 -4.57,-9.39c-0.37,0.21 0.02,-0.1 -0.09,-0.18c-2.23,-3.67 2.85,10.64 2.45,11.02c-0.68,0.68 -0.68,0.74 -0.36,1.4l0.34,0.7l-0.77,0.22c-0.41,0.11 -1.05,0.12 -1.44,0.02c-1.18,-0.36 -2.56,-0.94 -2.75,-0.43l-0.38,1.04c-0.31,-0.09 -1.38,-0.65 -1.5,-0.33c-0.11,0.3 -1.17,0.08 -1.58,0.12c-0.63,0.08 -2.77,0.25 -3.26,1.08c1.79,2.24 3.14,2.93 4.58,3.37c0.62,0.18 0.69,0.29 0.45,0.57c-0.5,0.56 -0.19,0.81 1,0.77c0.91,-0.04 1.16,0.04 1.19,0.43c0.06,0.37 0.31,0.48 1.33,0.58c0.92,0.07 1.29,0.22 1.4,0.55c0.11,0.33 0.38,0.43 1.05,0.41c0.92,-0.07 1.37,0.34 0.66,0.6c-1,0.38 -0.29,1.08 1.08,1.09c1.09,0 1.43,0.24 0.74,0.55c-0.83,0.39 -0.84,0.64 0,0.99c0.67,0.28 0.7,0.36 0.33,0.87c-0.38,0.56 -0.36,0.57 0.71,1c1.58,0.6 2.9,0.84 3.13,0.52c0.15,-0.17 -0.04,-0.35 -0.64,-0.59c-0.69,-0.29 -0.87,-0.5 -0.92,-1.06c-0.03,-0.38 -0.28,-0.93 -0.58,-1.21c-0.29,-0.31 -0.45,-0.71 -0.37,-0.92c0.09,-0.24 -0.06,-0.53 -0.38,-0.73c-0.28,-0.17 -0.63,-0.68 -0.72,-1.13c-0.16,-0.56 -0.38,-0.83 -0.69,-0.85c-0.25,-0.02 -0.94,-0.31 -1.54,-0.64c-0.59,-0.33 -1.35,-0.59 -1.7,-0.6c-0.37,0 -0.87,-0.2 -1.14,-0.47c-0.24,-0.28 -0.81,-0.52 -1.24,-0.59c-0.57,-0.08 -0.7,-0.2 -0.54,-0.39c0.4,-0.52 3.56,0.28 5.28,1.29c1.77,1.08 2.49,1.91 3.63,4.3c0.44,0.9 1.21,2.13 1.75,2.75c1.16,1.34 3.34,3.09 3.46,2.77c0.05,-0.13 -0.52,-1.05 -1.27,-2.03c-2.43,-3.14 -3.24,-5.88 -2.62,-8.67c0.17,-0.76 0.8,-2.13 1.59,-3.46c0.72,-1.22 1.29,-2.29 1.25,-2.41c-0.04,-0.12 -0.29,-0.14 -0.55,-0.07c-0.37,0.07 -0.74,-0.16 -1.8,-1.23c-1.58,-1.59 -2.13,-4.73 -2.87,-4.58zm2.74,5.76c0.44,0.27 0.68,0.55 0.58,0.68c-0.3,0.35 -1.9,-0.82 -2.67,-1.89l-1.84,-4.55l1.53,2.31c0.54,0.46 1.98,3.19 2.4,3.45zm-3.19,0.94c1.01,1.67 1.82,3.62 1.67,4.03c-0.13,0.35 -1.32,0.09 -3.89,-0.78c-3.49,-1.23 -4.26,-0.04 -6.05,0.52c-0.14,0.38 -0.37,0.53 -0.58,0.41c-5.76,-2.36 1.81,-2.83 3.63,-2.62c0.5,0.04 0.96,-0.04 1.01,-0.18c0.06,-0.16 0.33,-0.13 0.64,0.06c0.3,0.18 0.7,0.26 0.94,0.17c0.3,-0.11 0.51,0.01 0.86,0.53c1.01,1.44 1.73,1.12 1.2,-0.53c-0.15,-0.45 -0.23,-0.9 -0.2,-0.98c0.04,-0.11 -0.08,-0.61 -0.28,-1.16c-0.67,-1.87 -0.27,-1.65 1.06,0.54z" fill="#3f3244" id="svg_8"/>
   <path d="m69.62,50.69c-0.12,0.09 0.91,1.85 2.3,3.88c2.53,3.66 3.71,5.77 5.15,9.19c0.42,1.02 0.82,1.86 0.94,1.93c0.44,0.27 0.3,-0.71 -0.58,-3.63c-1.05,-3.45 -2.35,-5.8 -4.7,-8.46c-2.17,-2.48 -2.83,-3.08 -3.09,-2.91z" fill="#3f3244" id="svg_10"/>
   <path d="m43.18,39.49c-3.51,-0.58 -6.13,-0.16 -8.76,1.41c-1.01,0.64 -1.83,1.2 -1.8,1.28c0.03,0.08 1.19,-0.2 2.62,-0.62c2.03,-0.59 3.39,-0.71 6.46,-0.56c2.12,0.07 3.93,0.01 4,-0.18c0.18,-0.48 -0.9,-1.04 -2.51,-1.33z" fill="#3f3244" id="svg_11"/>
   <path d="m68.51,56.93c-1.66,-0.61 -1.86,-0.47 -0.46,0.38c2.38,1.45 4.42,4.18 5.77,7.68c0.93,2.42 1.32,2.66 0.98,0.6c-0.67,-4.24 -2.98,-7.41 -6.29,-8.66z" fill="#3f3244" id="svg_12"/>
   <path d="m64.57,57.34c-1.63,2.88 -4.93,6.56 -6.99,7.75c-1.29,0.77 -5.32,1.63 -7.34,1.59c-2.95,-0.08 -5.21,-0.86 -10.01,-3.58c-3.74,-2.11 -4.3,-2.36 -4.17,-1.88c0.07,0.34 0.36,0.88 0.63,1.21c0.87,1.12 4.12,3.77 6.06,4.94c2.12,1.29 2.3,1.6 2.27,3.87c-0.01,1.02 -0.22,1.72 -0.9,3.16c-0.57,1.21 -0.81,1.92 -0.67,2.01c0.42,0.26 1.64,-1.78 2.68,-4.46l1.03,-2.65l1.36,0.27c2.01,0.37 3.68,0.12 6.53,-0.96c2.78,-1.05 4.53,-2.44 7.04,-5.51c1.6,-1.97 3.19,-5.04 3.09,-6.09c-0.05,-0.56 -0.12,-0.51 -0.61,0.32z" fill="#3f3244" id="svg_13"/>
   <path d="m79.25,67.11c0.16,0.63 0.12,0.83 -0.2,1c-0.24,0.12 -0.48,0.5 -0.49,0.86c-0.06,0.46 -0.18,0.55 -0.63,0.38c-0.46,-0.22 -0.59,-0.1 -0.77,0.52c-0.21,0.7 -0.28,0.75 -0.94,0.36c-0.44,-0.27 -0.72,-0.67 -0.78,-1.14c-0.14,-1.15 -0.41,-1.04 -0.9,0.34c-1.05,2.87 -0.56,4.69 0.99,3.85l0.8,-0.44l0.48,1.02c0.99,2.02 1.7,1.57 1.58,-0.99c-0.07,-1.5 0.18,-1.54 0.95,-0.25c0.6,0.99 1.67,1.65 1.87,1.14c0.08,-0.22 -0.05,-1.09 -0.27,-1.95c-0.49,-1.82 -0.49,-1.98 0.26,-1.53c0.3,0.18 0.88,0.24 1.3,0.13c1.01,-0.25 0.77,-0.69 -1.32,-2.43c-2.12,-1.76 -2.17,-1.78 -1.91,-0.87z" fill="#3f3244" id="svg_14"/>
   <path d="m41.83,44.22c-1.66,-0.68 -2.92,-0.62 -4.23,0.2c-1.7,1.02 -1.77,1.57 -0.15,1.16c1.7,-0.39 3.04,-0.23 5.87,0.63c1.29,0.39 2.41,0.61 2.46,0.47c0.09,-0.24 -2.68,-1.96 -3.95,-2.47z" fill="#3f3244" id="svg_15"/>
   <path d="m29.95,41.86c-1.11,-0.11 -4.51,0.79 -5.56,1.44c-0.45,0.29 -0.83,0.75 -0.84,1.01c-0.03,0.54 0.16,0.56 2.53,0.35c0.36,-0.04 0.68,0.02 0.72,0.14c0.04,0.12 -0.32,0.77 -0.81,1.46c-1.91,2.71 -1.57,3.34 1.03,1.98c0.94,-0.52 1.87,-0.85 2.03,-0.75c0.17,0.07 0.37,0.69 0.44,1.36c0.2,1.91 0.54,2.08 2.38,1.29l1.65,-0.72l0.78,1.37c1.22,2.1 1.78,2.21 1.67,0.29c-0.1,-1.48 -0.82,-3.31 -1.5,-3.72c-0.33,-0.2 -1.15,-0.23 -1.83,-0.09c-1.08,0.27 -1.21,0.25 -1.35,-0.29c-0.09,-0.45 -0.41,-0.74 -1.08,-1.02c-1.04,-0.44 -1.08,-0.79 -0.14,-1.08c0.76,-0.2 0.75,-0.63 -0.02,-1.1c-0.72,-0.44 -0.66,-0.53 0.62,-0.95c0.88,-0.29 0.97,-0.37 0.57,-0.61c-0.26,-0.16 -0.85,-0.32 -1.3,-0.36z" fill="#3f3244" id="svg_16"/>
   <path d="m27.15,49.68c-0.98,0.99 -3.15,4.17 -3.54,5.22c-0.31,0.83 0.33,0.63 0.98,-0.33c0.37,-0.53 1.42,-1.95 2.33,-3.15c1.9,-2.45 1.9,-2.45 1.55,-2.66c-0.12,-0.07 -0.73,0.35 -1.32,0.92z" fill="#3f3244" id="svg_24"/>
   <path d="m31.27,55.06c-1,-0.31 -2.23,-0.47 -2.72,-0.4c-1.46,0.23 -4.64,1.67 -4.37,2.01c0.12,0.14 1.34,0.09 2.66,-0.13c1.33,-0.18 3.38,-0.29 4.55,-0.21c1.15,0.07 2.15,0.02 2.21,-0.15c0.13,-0.35 -0.14,-0.48 -2.33,-1.12z" fill="#3f3244" id="svg_25"/>
   <path d="m30.84,59.31c-0.59,-0.1 -1.57,0.07 -2.21,0.38c-1.24,0.63 -1.43,1.05 -0.25,0.67c0.92,-0.3 2.33,-0.17 3.77,0.41c1.44,0.58 1.83,0.55 1.2,-0.13c-0.78,-0.84 -1.33,-1.11 -2.51,-1.33z" fill="#3f3244" id="svg_26"/>
   <path d="m41.97,68.23c-0.05,0.13 -0.07,0.79 -0.05,1.43c0.02,1.01 -0.08,1.34 -0.62,2.04c-0.79,1.04 -0.75,1.3 0.27,0.96c1.45,-0.51 2.1,-2.6 1.18,-3.91c-0.57,-0.78 -0.65,-0.86 -0.78,-0.51z" fill="#3f3244" id="svg_27"/>
   <path d="m20.65,56.21c-1.51,0.14 -3.27,0.92 -3.21,1.45c0.02,0.18 0.47,0.52 1.04,0.73c0.85,0.32 0.97,0.46 0.91,1.02c-0.12,0.85 0.44,1.13 1.85,0.96l1.15,-0.16l0.11,0.76c0.17,0.93 0.58,1.21 1.53,1.13c0.6,-0.07 0.76,0.03 1.34,0.78c0.37,0.46 0.82,0.86 1.01,0.91c0.43,0.07 0.91,-1.27 0.74,-2.13c-0.12,-0.6 -0.24,-0.74 -0.78,-0.74c-1.36,-0.04 -1.89,-0.32 -2.17,-1.09c-0.27,-0.73 -0.32,-0.76 -1.31,-0.8c-0.93,-0.04 -1.03,-0.1 -1.06,-0.61c-0.04,-0.35 -0.25,-0.62 -0.58,-0.68c-0.66,-0.14 -0.53,-0.42 0.36,-0.81c1.07,-0.47 0.54,-0.9 -0.93,-0.73z" fill="#3f3244" id="svg_28"/>
   <path d="m33.52,64.71c-4.98,0.58 -6.52,1.92 -11.33,9.98c-2.24,3.73 -4.95,6.22 -7.68,7.07c-3.02,0.94 -11.48,1.25 -14.8,0.55c-1.59,-0.34 -3.19,-1.21 -3.92,-2.16c-1.39,-1.71 1.44,-2.23 9.58,-3.82c6.14,-4.2 8.92,-3.96 12.91,-11c1.42,-2.48 1.73,-3.38 0.99,-3.1c-0.17,0.06 -1.15,1.15 -2.19,2.4c-4.29,5.16 -6.29,6.49 -13.85,9.3c-3.34,1.24 -6.53,2.57 -7.07,2.94c-2.47,1.67 -1.71,4.48 1.63,6.02c4.51,2.12 16.66,2.44 20.66,0.57c2.83,-1.35 4.52,-3.4 8,-9.75c1.05,-1.94 2.25,-3.92 2.64,-4.42c0.97,-1.13 2.67,-2.21 5.13,-3.26c1.1,-0.49 2.05,-0.94 2.09,-1.05c0.16,-0.43 -0.77,-0.54 -2.79,-0.28z" fill="#3f3244" id="svg_29"/>
   <path d="m37.69,72.37c-0.77,0.13 -0.77,1.05 0,1.52c0.77,0.47 0.73,1.11 -0.13,2.33c-0.4,0.52 -0.72,1.08 -0.76,1.26c-0.07,0.42 0.87,0.73 1.58,0.53c0.65,-0.2 0.77,0.07 0.69,1.45c-0.12,1.45 0.48,1.85 1.35,0.92c0.41,-0.41 0.78,-0.71 0.85,-0.67c0.05,0.03 0.32,0.52 0.58,1.05c0.57,1.24 1.32,1.44 1.46,0.39c0.06,-0.39 0.12,-1.45 0.11,-2.35c0.01,-1.55 -0.01,-1.56 -0.58,-1.28c-0.43,0.23 -0.88,0.13 -1.65,-0.34c-0.93,-0.57 -1.06,-0.78 -1.21,-1.89c-0.09,-0.68 -0.21,-1.49 -0.28,-1.76c-0.16,-0.63 -1.27,-1.27 -2,-1.15z" fill="#3f3244" id="svg_30"/>
   <path d="m66.86,46.23l3.3,0l0.46,-0.98l0.75,1.88l0.83,-1.91l0.73,1.88l0.79,-1.86l0.79,1.87l0.44,-0.92l3.32,0m-11.67,-0.09l0.27,0l0,0.21l-0.27,0l0,-0.21zm11.67,-0.01l0.27,0l0,0.21l-0.27,0l0,-0.21z" fill="#3f3244" id="svg_44"/>
   <path d="m28.95,33.53l3.98,0l0.55,-1.09l0.9,2.1l1,-2.13l0.88,2.1l0.95,-2.07l0.95,2.09l0.53,-1.02l4.01,0m-14.08,-0.09l0.33,0l0,0.23l-0.33,0l0,-0.23zm14.08,-0.02l0.33,0l0,0.23l-0.33,0l0,-0.23z" fill="#3f3244" id="svg_45"/>
  </g>
 </g>

</svg>