<!DOCTYPE svg PUBLIC "-//W3C//DTD SVG 1.1//EN" "http://www.w3.org/Graphics/SVG/1.1/DTD/svg11.dtd">
<!-- Uploaded to: SVG Repo, www.svgrepo.com, Transformed by: SVG Repo Mixer Tools -->
<svg height="800px" width="800px" version="1.1" id="Capa_1" xmlns="http://www.w3.org/2000/svg" xmlns:xlink="http://www.w3.org/1999/xlink" viewBox="-29.75 -29.75 357.00 357.00" xml:space="preserve" fill="#000000" stroke="#000000" stroke-width="0.002975" transform="matrix(-1, 0, 0, 1, 0, 0)">
<g id="SVGRepo_bgCarrier" stroke-width="0">
<path transform="translate(-29.75, -29.75), scale(11.15625)" d="M16,31.417742554098368C18.201971574662586,32.11706572733576,21.025151194439808,31.456478304069357,22.654771894217653,29.818776227651178C24.38112522141371,28.08386182151616,23.56032430719388,25.058236755356578,24.553853220479958,22.82147031573882C25.262765346820075,21.22547161692787,26.854548597473347,20.22308158703543,27.615239158441902,18.6511025413953C28.489317989449226,16.84480484679576,29.521555202046684,14.955452060613222,29.32672146304162,12.9582627910456C29.128641177953142,10.927794033879708,28.063209837673934,8.950763936210103,26.536879218335084,7.597119221509747C25.052704291957408,6.280860791437646,22.806101895738134,6.439038297904203,21.014774855260416,5.586712714058811C19.23303613026418,4.738949315903791,17.903876967548037,3.1018167779905523,16,2.583600456515949C13.87332842909358,2.004741666139867,11.41576744911608,1.4054886770459876,9.472230668186477,2.4449473106005115C7.518773869705284,3.489711451099997,7.407122687582412,6.318502322035355,5.929909403305638,7.9693707255013155C4.344513262713642,9.741139517007676,0.5937958326557321,10.087917834648513,0.5072004597222968,12.463869604896896C0.41157344830957127,15.087626040754921,4.164824528292179,16.15489341064872,5.550292261022742,18.385077600705806C6.433256488392808,19.806383065818103,6.134838707118596,21.72992980401365,7.10881925498696,23.090480039891524C8.098961814726183,24.47360693719378,9.869278913118047,24.989753783450112,11.110798782449805,26.152530940390495C12.881081437124848,27.810534394891683,13.688317476962542,30.68357632955221,16,31.417742554098368" fill="#60495a" strokewidth="0"/>
</g>
<g id="SVGRepo_tracerCarrier" stroke-linecap="round" stroke-linejoin="round" stroke="#CCCCCC" stroke-width="1.7849999999999997"/>
<g id="SVGRepo_iconCarrier"> <g> <g id="XMLID_40_"> <g> <path style="fill:#40c011;" d="M110.48,159.54v19.63H73.19v-19.63c0-10.28,8.37-18.64,18.65-18.64S110.48,149.26,110.48,159.54z"/> <path style="fill:#0ec833;" d="M130.6,198.79v54.13c0,3.97-3.23,7.2-7.2,7.2H60.27c-3.96,0-7.19-3.23-7.19-7.2v-54.13H130.6z M101.65,237.55v-16.19c0-5.42-4.39-9.81-9.81-9.81c-5.42,0-9.82,4.39-9.82,9.81v16.19c0,5.42,4.4,9.82,9.82,9.82 C97.26,247.37,101.65,242.97,101.65,237.55z"/> <path style="fill:#40c011;" d="M277.62,61.08H19.88c0.1-13.09,10.78-23.7,23.88-23.7h209.98 C266.85,37.38,277.52,47.99,277.62,61.08z"/> <path style="fill:#40c011;" d="M277.63,101.39v68.12c0,13.17-10.72,23.89-23.89,23.89H150.22v-4.42c0-5.42-4.39-9.81-9.81-9.81 h-10.3v-19.63c0-21.1-17.17-38.26-38.27-38.26c-21.11,0-38.27,17.16-38.27,38.26v19.63H43.26c-5.41,0-9.81,4.39-9.81,9.81v2.06 c-8.02-3.85-13.57-12.05-13.57-21.53v-68.12H277.63z"/> <path d="M297.25,61.26v108.25c0,23.99-19.52,43.51-43.51,43.51H150.22v39.9c0,14.79-12.03,26.83-26.82,26.83H60.27 c-14.79,0-26.82-12.04-26.82-26.83v-41.16c-19.03-4.64-33.2-21.81-33.2-42.25V61.26c0-23.99,19.52-43.51,43.51-43.51h209.98 C277.73,17.75,297.25,37.27,297.25,61.26z M277.63,169.51v-68.12H19.88v68.12c0,9.48,5.55,17.68,13.57,21.53v-2.06 c0-5.42,4.4-9.81,9.81-9.81h10.31v-19.63c0-21.1,17.16-38.26,38.27-38.26c21.1,0,38.27,17.16,38.27,38.26v19.63h10.3 c5.42,0,9.81,4.39,9.81,9.81v4.42h103.52C266.91,193.4,277.63,182.68,277.63,169.51z M19.88,61.08h257.74 c-0.1-13.09-10.77-23.7-23.88-23.7H43.76C30.66,37.38,19.98,47.99,19.88,61.08z M130.6,252.92v-54.13H53.08v54.13 c0,3.97,3.23,7.2,7.19,7.2h63.13C127.37,260.12,130.6,256.89,130.6,252.92z M110.48,179.17v-19.63 c0-10.28-8.36-18.64-18.64-18.64s-18.65,8.36-18.65,18.64v19.63H110.48z"/> <path d="M101.65,221.36v16.19c0,5.42-4.39,9.82-9.81,9.82c-5.42,0-9.82-4.4-9.82-9.82v-16.19c0-5.42,4.4-9.81,9.82-9.81 C97.26,211.55,101.65,215.94,101.65,221.36z"/> </g> <g> </g> </g> </g> </g>
</svg>