<!DOCTYPE svg PUBLIC "-//W3C//DTD SVG 1.1//EN" "http://www.w3.org/Graphics/SVG/1.1/DTD/svg11.dtd">
<!-- Uploaded to: SVG Repo, www.svgrepo.com, Transformed by: SVG Repo Mixer Tools -->
<svg version="1.1" id="Layer_1" xmlns="http://www.w3.org/2000/svg" xmlns:xlink="http://www.w3.org/1999/xlink" viewBox="0 0 512.00 512.00" xml:space="preserve" width="800px" height="800px" fill="#322f2f" stroke="#322f2f">
<g id="SVGRepo_bgCarrier" stroke-width="0">
<path transform="translate(0, 0), scale(16)" d="M16,28.920337465074326C18.04093750540592,28.618241241530523,19.88436465525043,27.806727804636967,21.815510289488124,27.080529093114652C23.988100381085356,26.26353626915974,27.14929399415603,26.473547871781644,28.117030376067916,24.363782179666906C29.151178860010557,22.109231216454987,26.376568931941918,19.73329484645899,26.32312810934247,17.25345468809383C26.279834700510644,15.24448984452514,27.84725955392706,13.51908985063995,27.840022908199384,11.50967160326041C27.831155250972046,9.047366149232898,28.338309674728514,5.746458782861195,26.27683759937173,4.399848346690986C24.080499615877983,2.965139778340462,21.19981627715203,5.156966158994726,18.595234283870376,5.470720607742081C16.883568981268585,5.676912082935822,15.234140910864895,5.755899873200098,13.519598904178379,5.936617165900117C11.54523688511528,6.144720179709834,9.556360184535354,5.942829451406618,7.690172004942989,6.6201432081142C5.310191410501332,7.4839326238549715,1.6059544182156205,7.894205903089677,1.2280092710284567,10.39772287934175C0.8056406776419107,13.195501741297303,4.479883595872071,14.878045118805073,6.092526058238958,17.202985134731485C6.986899948931929,18.492400300334893,8.236460782291061,19.564441783264876,8.638443541758818,21.081315537646574C9.32176009508476,23.65979663232602,7.378764798566486,27.00265714040879,9.204814866581636,28.947143555061878C10.77825418467136,30.622635060961326,13.726298725746984,29.256887000079296,16,28.920337465074326" fill="#307a8d" strokewidth="0"/>
</g>
<g id="SVGRepo_tracerCarrier" stroke-linecap="round" stroke-linejoin="round"/>
<g id="SVGRepo_iconCarrier"> <rect x="173.398" y="108.583" style="fill:#a9aca9;" width="166.483" height="35.493"/> <rect x="173.398" y="7.614" style="fill:#bfc3ba;" width="166.483" height="100.968"/> <path style="fill:#4675CF;" d="M321.286,504.385H190.715c-18.072,0-32.722-14.65-32.722-32.722V144.079h196.015v327.584 C354.008,489.735,339.358,504.385,321.286,504.385z"/> <g style="opacity:0.24;"> <path style="fill:#3f324415591;" d="M329.846,144.079v306.693c0,18.072-14.65,32.722-32.722,32.722H166.553 c-2.388,0-4.713-0.262-6.955-0.748c4.542,12.617,16.612,21.638,30.793,21.638h130.571c18.072,0,32.722-14.65,32.722-32.722V144.079 H329.846z"/> </g> <g> <rect x="197.733" y="51.599" style="fill:#3f3244E3B43;" width="44.824" height="21.696"/> <rect x="270.731" y="51.599" style="fill:#3f3244E3B43;" width="44.824" height="21.696"/> </g> <path style="fill:#3f324415591;" d="M288.336,474.698h-63.39c-6.867,0-12.486-5.618-12.486-12.486l0,0 c0-6.867,5.618-12.486,12.486-12.486h63.39c6.867,0,12.486,5.618,12.486,12.486l0,0C300.821,469.08,295.203,474.698,288.336,474.698 z"/> <g style="opacity:0.23;"> <rect x="308.032" y="7.614" style="fill:#3f3244;" width="31.85" height="136.462"/> </g> <path d="M354.008,136.465h-6.513v-27.878V7.614c0-4.205-3.409-7.614-7.614-7.614h-166.48c-4.205,0-7.614,3.409-7.614,7.614v100.972 v27.878h-7.793c-4.205,0-7.614,3.409-7.614,7.614v327.584c0,22.241,18.095,40.336,40.336,40.336h130.57 c22.241,0,40.336-18.095,40.336-40.336V144.079C361.623,139.874,358.213,136.465,354.008,136.465z M181.015,15.229h151.251v85.743 H181.015V15.229z M181.015,116.201h151.251v20.264H181.015V116.201z M346.394,471.664c0,13.844-11.263,25.108-25.108,25.108H190.715 c-13.844,0-25.107-11.263-25.107-25.108v-319.97h7.793h166.48h6.513V471.664z"/> <path d="M242.554,43.984h-44.821c-4.205,0-7.614,3.409-7.614,7.614v21.697c0,4.205,3.409,7.614,7.614,7.614h44.821 c4.205,0,7.614-3.409,7.614-7.614V51.599C250.169,47.394,246.76,43.984,242.554,43.984z M234.94,65.682h-29.592v-6.468h29.592 V65.682z"/> <path d="M315.549,43.984h-44.821c-4.205,0-7.614,3.409-7.614,7.614v21.697c0,4.205,3.409,7.614,7.614,7.614h44.821 c4.205,0,7.615-3.409,7.615-7.614V51.599C323.163,47.394,319.754,43.984,315.549,43.984z M307.934,65.682h-29.592v-6.468h29.592 V65.682z"/> <path d="M288.336,442.112h-63.39c-11.084,0-20.1,9.017-20.1,20.1c0,11.084,9.017,20.1,20.1,20.1h63.39 c11.084,0,20.1-9.017,20.1-20.1C308.436,451.129,299.419,442.112,288.336,442.112z M288.336,467.084h-63.39 c-2.641,0-4.871-2.231-4.871-4.871s2.231-4.871,4.871-4.871h63.39c2.641,0,4.871,2.231,4.871,4.871S290.976,467.084,288.336,467.084 z"/> <path d="M186.207,159.239c-4.205,0-7.614,3.409-7.614,7.614v200.414c0,4.205,3.409,7.615,7.614,7.615 c4.205,0,7.614-3.409,7.614-7.615V166.854C193.822,162.648,190.412,159.239,186.207,159.239z"/> <path d="M186.207,390.389c-4.205,0-7.614,3.409-7.614,7.615v34.577c0,4.205,3.409,7.614,7.614,7.614 c4.205,0,7.614-3.409,7.614-7.614v-34.577C193.822,393.798,190.412,390.389,186.207,390.389z"/> </g>
</svg>